<mxfile host="app.diagrams.net" modified="2023-12-01T10:23:08.372Z" agent="Mozilla/5.0 (Windows NT 10.0; Win64; x64) AppleWebKit/537.36 (KHTML, like Gecko) Chrome/119.0.0.0 Safari/537.36" etag="7evi8uMCf8QYAEho8c--" version="22.1.5" type="github">
  <diagram name="Page-1" id="2slLX5uT0JwPV2bRqkGj">
    <mxGraphModel dx="2261" dy="758" grid="1" gridSize="10" guides="1" tooltips="1" connect="1" arrows="1" fold="1" page="1" pageScale="1" pageWidth="827" pageHeight="1169" math="0" shadow="0">
      <root>
        <mxCell id="0" />
        <mxCell id="1" parent="0" />
        <mxCell id="hV0ogb_sc_N92lvSPBkA-10" style="edgeStyle=orthogonalEdgeStyle;rounded=0;orthogonalLoop=1;jettySize=auto;html=1;exitX=0.5;exitY=1;exitDx=0;exitDy=0;entryX=0.5;entryY=0;entryDx=0;entryDy=0;" edge="1" parent="1" source="hV0ogb_sc_N92lvSPBkA-1" target="hV0ogb_sc_N92lvSPBkA-2">
          <mxGeometry relative="1" as="geometry" />
        </mxCell>
        <mxCell id="hV0ogb_sc_N92lvSPBkA-1" value="debut" style="rounded=1;whiteSpace=wrap;html=1;" vertex="1" parent="1">
          <mxGeometry x="310" y="50" width="120" height="60" as="geometry" />
        </mxCell>
        <mxCell id="hV0ogb_sc_N92lvSPBkA-11" style="edgeStyle=orthogonalEdgeStyle;rounded=0;orthogonalLoop=1;jettySize=auto;html=1;exitX=0.5;exitY=1;exitDx=0;exitDy=0;entryX=0.5;entryY=0;entryDx=0;entryDy=0;" edge="1" parent="1" source="hV0ogb_sc_N92lvSPBkA-2" target="hV0ogb_sc_N92lvSPBkA-4">
          <mxGeometry relative="1" as="geometry" />
        </mxCell>
        <mxCell id="hV0ogb_sc_N92lvSPBkA-2" value="pour i&amp;nbsp; de&amp;nbsp; 75" style="rounded=1;whiteSpace=wrap;html=1;" vertex="1" parent="1">
          <mxGeometry x="200" y="160" width="340" height="70" as="geometry" />
        </mxCell>
        <mxCell id="hV0ogb_sc_N92lvSPBkA-25" style="edgeStyle=orthogonalEdgeStyle;rounded=0;orthogonalLoop=1;jettySize=auto;html=1;exitX=0.5;exitY=1;exitDx=0;exitDy=0;entryX=0.5;entryY=0;entryDx=0;entryDy=0;" edge="1" parent="1" source="hV0ogb_sc_N92lvSPBkA-3" target="hV0ogb_sc_N92lvSPBkA-16">
          <mxGeometry relative="1" as="geometry" />
        </mxCell>
        <mxCell id="hV0ogb_sc_N92lvSPBkA-3" value="fin pour i" style="rounded=1;whiteSpace=wrap;html=1;" vertex="1" parent="1">
          <mxGeometry x="210" y="690" width="340" height="70" as="geometry" />
        </mxCell>
        <mxCell id="hV0ogb_sc_N92lvSPBkA-12" style="edgeStyle=orthogonalEdgeStyle;rounded=0;orthogonalLoop=1;jettySize=auto;html=1;exitX=0.5;exitY=1;exitDx=0;exitDy=0;entryX=0.5;entryY=0;entryDx=0;entryDy=0;" edge="1" parent="1" source="hV0ogb_sc_N92lvSPBkA-4" target="hV0ogb_sc_N92lvSPBkA-5">
          <mxGeometry relative="1" as="geometry" />
        </mxCell>
        <mxCell id="hV0ogb_sc_N92lvSPBkA-4" value="prendre un bouteille" style="rounded=0;whiteSpace=wrap;html=1;" vertex="1" parent="1">
          <mxGeometry x="310" y="260" width="120" height="60" as="geometry" />
        </mxCell>
        <mxCell id="hV0ogb_sc_N92lvSPBkA-5" value="&lt;br&gt;&lt;span style=&quot;color: rgb(0, 0, 0); font-family: Helvetica; font-size: 12px; font-style: normal; font-variant-ligatures: normal; font-variant-caps: normal; font-weight: 400; letter-spacing: normal; orphans: 2; text-align: center; text-indent: 0px; text-transform: none; widows: 2; word-spacing: 0px; -webkit-text-stroke-width: 0px; background-color: rgb(251, 251, 251); text-decoration-thickness: initial; text-decoration-style: initial; text-decoration-color: initial; float: none; display: inline !important;&quot;&gt;Mettre 1.5g de sucre dans la bouteille&lt;/span&gt;&lt;br&gt;" style="rounded=0;whiteSpace=wrap;html=1;" vertex="1" parent="1">
          <mxGeometry x="320" y="350" width="120" height="60" as="geometry" />
        </mxCell>
        <mxCell id="hV0ogb_sc_N92lvSPBkA-14" style="edgeStyle=orthogonalEdgeStyle;rounded=0;orthogonalLoop=1;jettySize=auto;html=1;exitX=0.5;exitY=1;exitDx=0;exitDy=0;entryX=0.5;entryY=0;entryDx=0;entryDy=0;" edge="1" parent="1" source="hV0ogb_sc_N92lvSPBkA-8" target="hV0ogb_sc_N92lvSPBkA-9">
          <mxGeometry relative="1" as="geometry" />
        </mxCell>
        <mxCell id="hV0ogb_sc_N92lvSPBkA-8" value="Mettre 0.5L de moût fermenté dans la bouteille" style="rounded=0;whiteSpace=wrap;html=1;" vertex="1" parent="1">
          <mxGeometry x="310" y="470" width="120" height="60" as="geometry" />
        </mxCell>
        <mxCell id="hV0ogb_sc_N92lvSPBkA-9" value="&#xa;&lt;span style=&quot;color: rgb(10, 35, 69); font-family: Quicksand, sans-serif; font-size: 15px; font-style: normal; font-variant-ligatures: normal; font-variant-caps: normal; font-weight: 500; letter-spacing: normal; orphans: 2; text-align: left; text-indent: 0px; text-transform: none; widows: 2; word-spacing: 0px; -webkit-text-stroke-width: 0px; background-color: rgb(255, 255, 255); text-decoration-thickness: initial; text-decoration-style: initial; text-decoration-color: initial; float: none; display: inline !important;&quot;&gt;Encapsuler&lt;/span&gt;&#xa;&#xa;" style="rounded=0;whiteSpace=wrap;html=1;" vertex="1" parent="1">
          <mxGeometry x="310" y="585" width="120" height="55" as="geometry" />
        </mxCell>
        <mxCell id="hV0ogb_sc_N92lvSPBkA-13" style="edgeStyle=orthogonalEdgeStyle;rounded=0;orthogonalLoop=1;jettySize=auto;html=1;exitX=0.5;exitY=1;exitDx=0;exitDy=0;entryX=0.583;entryY=0.167;entryDx=0;entryDy=0;entryPerimeter=0;" edge="1" parent="1" source="hV0ogb_sc_N92lvSPBkA-5" target="hV0ogb_sc_N92lvSPBkA-8">
          <mxGeometry relative="1" as="geometry" />
        </mxCell>
        <mxCell id="hV0ogb_sc_N92lvSPBkA-15" style="edgeStyle=orthogonalEdgeStyle;rounded=0;orthogonalLoop=1;jettySize=auto;html=1;exitX=0.5;exitY=1;exitDx=0;exitDy=0;entryX=0.471;entryY=0.143;entryDx=0;entryDy=0;entryPerimeter=0;" edge="1" parent="1" source="hV0ogb_sc_N92lvSPBkA-9" target="hV0ogb_sc_N92lvSPBkA-3">
          <mxGeometry relative="1" as="geometry" />
        </mxCell>
        <mxCell id="hV0ogb_sc_N92lvSPBkA-21" style="edgeStyle=orthogonalEdgeStyle;rounded=0;orthogonalLoop=1;jettySize=auto;html=1;exitX=0.5;exitY=1;exitDx=0;exitDy=0;entryX=0.5;entryY=0;entryDx=0;entryDy=0;" edge="1" parent="1" source="hV0ogb_sc_N92lvSPBkA-16" target="hV0ogb_sc_N92lvSPBkA-18">
          <mxGeometry relative="1" as="geometry" />
        </mxCell>
        <mxCell id="hV0ogb_sc_N92lvSPBkA-16" value="mettre une bouteille sur chaque tapis&amp;nbsp;" style="rounded=0;whiteSpace=wrap;html=1;" vertex="1" parent="1">
          <mxGeometry x="320" y="820" width="120" height="60" as="geometry" />
        </mxCell>
        <mxCell id="hV0ogb_sc_N92lvSPBkA-23" style="edgeStyle=orthogonalEdgeStyle;rounded=0;orthogonalLoop=1;jettySize=auto;html=1;exitX=1;exitY=0.5;exitDx=0;exitDy=0;entryX=0;entryY=0.5;entryDx=0;entryDy=0;" edge="1" parent="1" source="hV0ogb_sc_N92lvSPBkA-17" target="hV0ogb_sc_N92lvSPBkA-18">
          <mxGeometry relative="1" as="geometry" />
        </mxCell>
        <mxCell id="hV0ogb_sc_N92lvSPBkA-27" style="edgeStyle=orthogonalEdgeStyle;rounded=0;orthogonalLoop=1;jettySize=auto;html=1;exitX=0;exitY=0.5;exitDx=0;exitDy=0;entryX=0;entryY=0.25;entryDx=0;entryDy=0;" edge="1" parent="1" source="hV0ogb_sc_N92lvSPBkA-17" target="hV0ogb_sc_N92lvSPBkA-16">
          <mxGeometry relative="1" as="geometry" />
        </mxCell>
        <mxCell id="hV0ogb_sc_N92lvSPBkA-28" value="&lt;font style=&quot;font-size: 15px;&quot;&gt;non&lt;/font&gt;" style="edgeLabel;html=1;align=center;verticalAlign=middle;resizable=0;points=[];" vertex="1" connectable="0" parent="hV0ogb_sc_N92lvSPBkA-27">
          <mxGeometry x="-0.6793" y="2" relative="1" as="geometry">
            <mxPoint as="offset" />
          </mxGeometry>
        </mxCell>
        <mxCell id="hV0ogb_sc_N92lvSPBkA-35" style="edgeStyle=orthogonalEdgeStyle;rounded=0;orthogonalLoop=1;jettySize=auto;html=1;exitX=0.5;exitY=1;exitDx=0;exitDy=0;entryX=0.583;entryY=0.017;entryDx=0;entryDy=0;entryPerimeter=0;" edge="1" parent="1" source="hV0ogb_sc_N92lvSPBkA-17" target="hV0ogb_sc_N92lvSPBkA-30">
          <mxGeometry relative="1" as="geometry">
            <mxPoint x="380" y="1210" as="targetPoint" />
          </mxGeometry>
        </mxCell>
        <mxCell id="hV0ogb_sc_N92lvSPBkA-38" value="&lt;font style=&quot;font-size: 15px;&quot;&gt;oui&lt;/font&gt;" style="edgeLabel;html=1;align=center;verticalAlign=middle;resizable=0;points=[];" vertex="1" connectable="0" parent="hV0ogb_sc_N92lvSPBkA-35">
          <mxGeometry x="-0.8898" y="1" relative="1" as="geometry">
            <mxPoint as="offset" />
          </mxGeometry>
        </mxCell>
        <mxCell id="hV0ogb_sc_N92lvSPBkA-17" value="bouteille déposées sur le tapis&lt;br style=&quot;border-color: var(--border-color); color: rgb(10, 35, 69); font-family: Quicksand, sans-serif; font-size: 15px; text-align: left;&quot;&gt;&lt;span style=&quot;color: rgb(10, 35, 69); font-family: Quicksand, sans-serif; font-size: 15px; text-align: left; background-color: rgb(255, 255, 255);&quot;&gt;de&amp;nbsp;&lt;/span&gt;&lt;span style=&quot;color: rgb(10, 35, 69); font-family: Quicksand, sans-serif; font-size: 15px; font-style: normal; font-variant-ligatures: normal; font-variant-caps: normal; font-weight: 500; letter-spacing: normal; orphans: 2; text-align: left; text-indent: 0px; text-transform: none; widows: 2; word-spacing: 0px; -webkit-text-stroke-width: 0px; background-color: rgb(255, 255, 255); text-decoration-thickness: initial; text-decoration-style: initial; text-decoration-color: initial; float: none; display: inline !important;&quot;&gt;Matthieu&amp;nbsp;: &lt;br&gt;30 Bouteilles&lt;/span&gt;" style="rhombus;whiteSpace=wrap;html=1;" vertex="1" parent="1">
          <mxGeometry x="-40" y="950" width="230" height="200" as="geometry" />
        </mxCell>
        <mxCell id="hV0ogb_sc_N92lvSPBkA-24" style="edgeStyle=orthogonalEdgeStyle;rounded=0;orthogonalLoop=1;jettySize=auto;html=1;exitX=1;exitY=0.5;exitDx=0;exitDy=0;" edge="1" parent="1" source="hV0ogb_sc_N92lvSPBkA-18" target="hV0ogb_sc_N92lvSPBkA-19">
          <mxGeometry relative="1" as="geometry" />
        </mxCell>
        <mxCell id="hV0ogb_sc_N92lvSPBkA-18" value="&lt;br&gt;&lt;span style=&quot;color: rgb(10, 35, 69); font-family: Quicksand, sans-serif; font-size: 15px; font-style: normal; font-variant-ligatures: normal; font-variant-caps: normal; font-weight: 500; letter-spacing: normal; orphans: 2; text-align: left; text-indent: 0px; text-transform: none; widows: 2; word-spacing: 0px; -webkit-text-stroke-width: 0px; background-color: rgb(255, 255, 255); text-decoration-thickness: initial; text-decoration-style: initial; text-decoration-color: initial; float: none; display: inline !important;&quot;&gt;bouteille déposées sur le tapis&lt;br style=&quot;border-color: var(--border-color);&quot;&gt;de&amp;nbsp;Luc&amp;nbsp;: &lt;br&gt;15 Bouteilles&lt;/span&gt;&lt;br&gt;" style="rhombus;whiteSpace=wrap;html=1;" vertex="1" parent="1">
          <mxGeometry x="255" y="950" width="250" height="200" as="geometry" />
        </mxCell>
        <mxCell id="hV0ogb_sc_N92lvSPBkA-26" style="edgeStyle=orthogonalEdgeStyle;rounded=0;orthogonalLoop=1;jettySize=auto;html=1;exitX=1;exitY=0.5;exitDx=0;exitDy=0;entryX=1;entryY=0.25;entryDx=0;entryDy=0;" edge="1" parent="1" source="hV0ogb_sc_N92lvSPBkA-19" target="hV0ogb_sc_N92lvSPBkA-16">
          <mxGeometry relative="1" as="geometry" />
        </mxCell>
        <mxCell id="hV0ogb_sc_N92lvSPBkA-29" value="&lt;font style=&quot;font-size: 15px;&quot;&gt;non&lt;/font&gt;" style="edgeLabel;html=1;align=center;verticalAlign=middle;resizable=0;points=[];" vertex="1" connectable="0" parent="hV0ogb_sc_N92lvSPBkA-26">
          <mxGeometry x="-0.6877" y="-1" relative="1" as="geometry">
            <mxPoint as="offset" />
          </mxGeometry>
        </mxCell>
        <mxCell id="hV0ogb_sc_N92lvSPBkA-19" value="&lt;br&gt;&lt;span style=&quot;color: rgb(10, 35, 69); font-family: Quicksand, sans-serif; font-size: 15px; font-style: normal; font-variant-ligatures: normal; font-variant-caps: normal; font-weight: 500; letter-spacing: normal; orphans: 2; text-align: left; text-indent: 0px; text-transform: none; widows: 2; word-spacing: 0px; -webkit-text-stroke-width: 0px; background-color: rgb(255, 255, 255); text-decoration-thickness: initial; text-decoration-style: initial; text-decoration-color: initial; float: none; display: inline !important;&quot;&gt;bouteille déposées sur le tapis &lt;br&gt;de Sophie : &lt;br&gt;30 Bouteilles&lt;/span&gt;&lt;br&gt;" style="rhombus;whiteSpace=wrap;html=1;" vertex="1" parent="1">
          <mxGeometry x="560" y="950" width="250" height="200" as="geometry" />
        </mxCell>
        <mxCell id="hV0ogb_sc_N92lvSPBkA-20" style="edgeStyle=orthogonalEdgeStyle;rounded=0;orthogonalLoop=1;jettySize=auto;html=1;exitX=1;exitY=0.5;exitDx=0;exitDy=0;entryX=0.992;entryY=0.367;entryDx=0;entryDy=0;entryPerimeter=0;" edge="1" parent="1" source="hV0ogb_sc_N92lvSPBkA-18" target="hV0ogb_sc_N92lvSPBkA-16">
          <mxGeometry relative="1" as="geometry" />
        </mxCell>
        <mxCell id="hV0ogb_sc_N92lvSPBkA-22" value="&lt;font style=&quot;font-size: 15px;&quot;&gt;non&lt;/font&gt;" style="edgeLabel;html=1;align=center;verticalAlign=middle;resizable=0;points=[];" vertex="1" connectable="0" parent="hV0ogb_sc_N92lvSPBkA-20">
          <mxGeometry x="-0.1672" y="4" relative="1" as="geometry">
            <mxPoint as="offset" />
          </mxGeometry>
        </mxCell>
        <mxCell id="hV0ogb_sc_N92lvSPBkA-30" value="fin" style="rounded=1;whiteSpace=wrap;html=1;" vertex="1" parent="1">
          <mxGeometry x="310" y="1300" width="120" height="60" as="geometry" />
        </mxCell>
        <mxCell id="hV0ogb_sc_N92lvSPBkA-33" style="edgeStyle=orthogonalEdgeStyle;rounded=0;orthogonalLoop=1;jettySize=auto;html=1;exitX=0.5;exitY=1;exitDx=0;exitDy=0;entryX=0.583;entryY=0.033;entryDx=0;entryDy=0;entryPerimeter=0;" edge="1" parent="1" source="hV0ogb_sc_N92lvSPBkA-18" target="hV0ogb_sc_N92lvSPBkA-30">
          <mxGeometry relative="1" as="geometry" />
        </mxCell>
        <mxCell id="hV0ogb_sc_N92lvSPBkA-36" value="&lt;font style=&quot;font-size: 15px;&quot;&gt;oui&lt;/font&gt;" style="edgeLabel;html=1;align=center;verticalAlign=middle;resizable=0;points=[];" vertex="1" connectable="0" parent="hV0ogb_sc_N92lvSPBkA-33">
          <mxGeometry x="-0.5737" y="-1" relative="1" as="geometry">
            <mxPoint as="offset" />
          </mxGeometry>
        </mxCell>
        <mxCell id="hV0ogb_sc_N92lvSPBkA-34" style="edgeStyle=orthogonalEdgeStyle;rounded=0;orthogonalLoop=1;jettySize=auto;html=1;exitX=0.5;exitY=1;exitDx=0;exitDy=0;entryX=0.575;entryY=0.05;entryDx=0;entryDy=0;entryPerimeter=0;" edge="1" parent="1" source="hV0ogb_sc_N92lvSPBkA-19" target="hV0ogb_sc_N92lvSPBkA-30">
          <mxGeometry relative="1" as="geometry" />
        </mxCell>
        <mxCell id="hV0ogb_sc_N92lvSPBkA-37" value="&lt;font style=&quot;font-size: 15px;&quot;&gt;oui&lt;/font&gt;" style="edgeLabel;html=1;align=center;verticalAlign=middle;resizable=0;points=[];" vertex="1" connectable="0" parent="hV0ogb_sc_N92lvSPBkA-34">
          <mxGeometry x="-0.8998" y="-2" relative="1" as="geometry">
            <mxPoint as="offset" />
          </mxGeometry>
        </mxCell>
      </root>
    </mxGraphModel>
  </diagram>
</mxfile>
